<svg xmlns="http://www.w3.org/2000/svg" xmlns:xlink="http://www.w3.org/1999/xlink" width="48" height="48" class="home-icon">
    <defs>
        <path id="a" d="M36.147 26.13v10.474c0 .763-.612 1.396-1.35 1.396H26.7v-8.379h-5.398V38h-8.098c-.738 0-1.35-.633-1.35-1.396V26.13c0-.044.021-.087.021-.13L24 15.656l12.126 10.342c.02.044.02.087.02.131zm4.702-1.505l-1.307 1.614a.695.695 0 0 1-.443.24h-.063a.648.648 0 0 1-.443-.152L24 13.737 9.407 26.327a.703.703 0 0 1-.506.152.695.695 0 0 1-.443-.24l-1.307-1.614a.733.733 0 0 1 .084-.982l15.162-13.07c.886-.764 2.32-.764 3.206 0l5.145 4.451v-4.255c0-.393.295-.698.675-.698h4.049c.38 0 .675.305.675.698v8.903l4.618 3.97c.274.24.316.699.084.983z"/>
    </defs>
    <g fill="none" fill-rule="evenodd">
        <mask id="b" fill="#fff">
            <use xlink:href="#a"/>
        </mask>
        <use fill="#00A8FF" fill-rule="nonzero" xlink:href="#a"/>
        <g fill="#00A8FF" mask="url(#b)">
            <path d="M0 0h48v48H0z"/>
        </g>
    </g>
</svg>
