<svg xmlns="http://www.w3.org/2000/svg" viewBox="18 4.294 125.326 32.497" width="150" height="48" className="nearpod-logo">
    <path class="color-change" fill="#00A8FF" d="M56.913 19.272c.33-.77.784-1.443 1.36-2.022a6.4 6.4 0 0 1 2.027-1.367 6.227 6.227 0 0 1 2.468-.497c.888 0 1.715.166 2.48.497a6.646 6.646 0 0 1 2.027 1.367 6.291 6.291 0 0 1 1.871 4.512v6.406h-2.513v-6.407a3.833 3.833 0 0 0-2.36-3.545c-.473-.2-.975-.3-1.505-.3-.532 0-1.029.1-1.493.3a3.861 3.861 0 0 0-2.046 2.05 3.764 3.764 0 0 0-.3 1.495v6.407h-2.513v-6.406c0-.891.166-1.722.497-2.49m17.097-.219c-.755.76-1.132 1.67-1.132 2.734 0 .59.132 1.15.397 1.68l1.032-1.037 1.47-1.481c.52-.523 1.02-1.021 1.5-1.497.482-.474.854-.845 1.119-1.11a3.78 3.78 0 0 0-2.278-.37c-.802.112-1.504.474-2.108 1.081zm6.31 4.59l1.784 1.795-.878.883a6.326 6.326 0 0 1-2.065 1.396 6.26 6.26 0 0 1-2.434.484c-.849 0-1.66-.162-2.433-.484a6.31 6.31 0 0 1-2.065-1.396 6.067 6.067 0 0 1-1.388-2.121 6.574 6.574 0 0 1 0-4.8 6.094 6.094 0 0 1 1.388-2.108 6.182 6.182 0 0 1 2.107-1.41 6.382 6.382 0 0 1 2.391-.47c.81 0 1.609.156 2.391.47.792.32 1.51.8 2.108 1.41l.878.883-7.046 7.092c.717.361 1.475.48 2.278.357.8-.123 1.504-.49 2.108-1.098l.876-.883zm12.399 1.962V21.73c0-.532-.1-1.03-.297-1.497a3.92 3.92 0 0 0-.82-1.226 3.891 3.891 0 0 0-1.218-.826 3.72 3.72 0 0 0-1.485-.298 3.822 3.822 0 0 0-3.552 2.35c-.2.473-.301.983-.298 1.497 0 .531.099 1.035.298 1.51a3.784 3.784 0 0 0 2.053 2.064c.47.2.971.301 1.5.301h3.819zm-3.821-10.252c.886 0 1.709.166 2.475.499a6.427 6.427 0 0 1 3.363 3.387c.33.769.496 1.599.496 2.491v6.404h-6.334a6.122 6.122 0 0 1-2.461-.498 6.42 6.42 0 0 1-3.406-3.43 6.252 6.252 0 0 1-.496-2.477c0-.893.164-1.723.496-2.491a6.298 6.298 0 0 1 1.369-2.021 6.522 6.522 0 0 1 2.037-1.367 6.214 6.214 0 0 1 2.461-.497zm15.12 0v2.531h-1.273c-.528 0-1.023.1-1.485.298a3.85 3.85 0 0 0-2.336 3.546v6.406h-2.545V21.73c0-.893.164-1.723.495-2.491a6.314 6.314 0 0 1 1.373-2.021 6.503 6.503 0 0 1 2.036-1.368 6.182 6.182 0 0 1 2.462-.498h1.273zm36.623 7.913a3.92 3.92 0 0 1-.826 1.226c-.35.352-.762.627-1.236.825-.475.201-.977.301-1.508.301s-1.033-.1-1.508-.301a3.77 3.77 0 0 1-1.235-.825 3.9 3.9 0 0 1-.825-1.226 3.75 3.75 0 0 1-.299-1.496c0-.531.1-1.035.299-1.51a3.796 3.796 0 0 1 2.063-2.066c.473-.2.975-.299 1.506-.299.529 0 1.033.1 1.508.3a3.78 3.78 0 0 1 2.06 2.065c.2.475.299.979.299 1.51s-.1 1.03-.299 1.496h.001zm2.779-10.679h-2.464v4.122a6.196 6.196 0 0 0-3.888-1.344 6.15 6.15 0 0 0-2.479.498 6.447 6.447 0 0 0-2.028 1.38 6.439 6.439 0 0 0-1.375 2.05 6.283 6.283 0 0 0-.496 2.477c0 .893.166 1.724.496 2.491.323.757.79 1.443 1.375 2.021a6.59 6.59 0 0 0 2.027 1.366 6.145 6.145 0 0 0 2.48.498c.869 0 1.691-.166 2.467-.498a6.384 6.384 0 0 0 3.387-3.388 6.22 6.22 0 0 0 .497-2.491c0-.093-.01-.183-.013-.273h.013l.001-8.909zm-29.46 10.679a3.794 3.794 0 0 1-2.061 2.051 3.82 3.82 0 0 1-1.506.301 3.82 3.82 0 0 1-1.508-.301 3.765 3.765 0 0 1-1.236-.825 3.884 3.884 0 0 1-.825-1.226 3.766 3.766 0 0 1-.298-1.496 3.87 3.87 0 0 1 1.123-2.75c.35-.351.762-.627 1.236-.826.475-.2.975-.299 1.508-.299.529 0 1.032.1 1.506.3.475.198.887.474 1.238.825.35.352.625.765.823 1.24.2.475.3.979.3 1.51s-.1 1.03-.3 1.496m2.284-3.973a6.558 6.558 0 0 0-1.36-2.05 6.228 6.228 0 0 0-2.026-1.38 6.202 6.202 0 0 0-2.467-.498c-.891 0-1.716.166-2.48.498a6.464 6.464 0 0 0-3.402 3.43 6.267 6.267 0 0 0-.497 2.477c0 .207.011.41.03.611v8.596h2.462v-4.162c.431.332.897.612 1.406.834a6.143 6.143 0 0 0 2.479.498c.87 0 1.692-.166 2.469-.498a6.384 6.384 0 0 0 3.387-3.388c.33-.768.496-1.599.496-2.491a6.305 6.305 0 0 0-.497-2.477m11.361 2.477c0-.531-.1-1.035-.299-1.51a3.798 3.798 0 0 0-2.061-2.066 3.835 3.835 0 0 0-1.507-.299c-.532 0-1.033.1-1.506.3a3.79 3.79 0 0 0-2.063 2.065 3.888 3.888 0 0 0-.297 1.51c0 .532.099 1.03.297 1.496.2.465.476.873.826 1.226.351.352.762.627 1.237.825.473.201.974.301 1.506.301.531 0 1.033-.1 1.507-.301a3.774 3.774 0 0 0 1.237-.825c.351-.353.627-.761.824-1.226.201-.466.299-.964.299-1.496m2.482 0a6.219 6.219 0 0 1-.496 2.491 6.42 6.42 0 0 1-1.362 2.021 6.352 6.352 0 0 1-6.971 1.367c-.755-.324-1.443-.788-2.028-1.366s-1.052-1.265-1.375-2.021a6.258 6.258 0 0 1-.496-2.492c0-.873.166-1.699.496-2.477a6.46 6.46 0 0 1 3.402-3.43 6.179 6.179 0 0 1 2.48-.498c.869 0 1.691.166 2.467.498.76.321 1.449.791 2.025 1.38a6.536 6.536 0 0 1 1.362 2.05c.331.778.496 1.603.496 2.477M34.14 4.294c-8.9 0-16.14 7.29-16.14 16.249 0 8.96 7.24 16.248 16.14 16.248s16.14-7.289 16.14-16.248c0-8.96-7.24-16.249-16.14-16.249"/>
    <path class="color-change-logo" fill="#FFF" d="M45.109 16.41L39.316 28.5v.001a1.942 1.942 0 0 1-.104.19l-.044.094c-.472.957-1.376 1.5-2.683 1.5h-7.219c-.434 0-.757-.115-.962-.28a.804.804 0 0 1-.308-.655c0-.168.043-.361.14-.574h2.196c.02.004.035.014.055.014h6.142c.472-.006.845-.083 1.237-.833v-.002l.27-.569h.002l5.258-10.975h1.813zm-5.078-4.115h-8.303c-.519 0-.917.034-1.332.837l-.273.568-5.233 10.922h-1.812L28.32 13.7l.672-1.4c.472-.957 1.376-1.499 2.682-1.499h7.22c.436 0 .757.113.962.279.2.158.314.4.308.655 0 .164-.042.353-.133.56zm5.435 2.595H33.978c-.603 0-.978.136-1.357.763l-3.29 6.867-1.055 2.156h-1.792l4.682-9.782c.473-.955 1.376-1.498 2.683-1.498h10.482c.435 0 .758.113.962.279.2.158.314.4.308.655 0 .164-.041.353-.135.56zm-5.385 1.452h1.816l-4.517 9.426c-.032.066-.066.13-.104.192l-.044.093c-.473.956-1.376 1.5-2.683 1.5H23.95c-.434 0-.757-.115-.962-.281a.806.806 0 0 1-.308-.654c0-.167.043-.361.14-.573h2.196c.018.004.036.015.055.015h9.425c.52 0 .918-.035 1.333-.836l.273-.57h.001l2.75-5.739.023-.048.3-.627v-.002l.905-1.896z"/>
</svg>
